<svg xmlns="http://www.w3.org/2000/svg" width="111" height="28" fill="none"><path fill="#254741" d="m12.982 11.07-7.104 7.985h7.619c.618 0 1.132.102 1.441.41.31.307.515.614.515 1.126 0 .409-.206.819-.515 1.023-.309.307-.823.41-1.441.41H2.892c-.72 0-1.339-.205-1.647-.512-.412-.307-.515-.717-.515-1.33 0-.308.103-.717.412-1.024.308-.308.823-.922 1.647-1.843.824-.921 1.647-1.843 2.368-2.56.72-.818 1.338-1.535 1.956-2.149.618-.716 1.133-1.228 1.545-1.74.412-.512.72-.819.926-1.228H3.82a7.712 7.712 0 0 1-1.854-.205c-.412-.102-.618-.512-.618-1.126 0-.41.206-.819.515-1.024.31-.307.721-.409 1.339-.409h8.957c.824 0 1.442.102 1.957.41.411.204.617.716.617 1.33 0 .205 0 .41-.103.614-.103.205-.206.41-.309.512-.103.103-.205.307-.411.512-.515.307-.721.512-.927.819ZM27.5 20.181a13.147 13.147 0 0 1-2.78 1.638c-.927.41-1.854.512-2.986.512-1.03 0-1.854-.205-2.677-.614-.721-.41-1.339-.921-1.75-1.638-.413-.717-.618-1.433-.618-2.15 0-1.023.308-1.944 1.03-2.763.72-.717 1.646-1.229 2.779-1.536.206-.102.824-.205 1.853-.41 1.03-.204 1.854-.409 2.574-.511.721-.205 1.442-.41 2.265-.614 0-1.024-.206-1.74-.617-2.252-.412-.512-1.133-.717-2.265-.717-1.03 0-1.75.103-2.266.41a3.54 3.54 0 0 0-1.235 1.228c-.309.512-.618.921-.72 1.126-.104.205-.516.307-.927.307-.412 0-.824-.102-1.133-.41-.309-.307-.515-.614-.515-1.023 0-.716.206-1.33.72-1.945.516-.614 1.236-1.126 2.266-1.638 1.03-.41 2.265-.614 3.81-.614 1.75 0 3.088.205 4.015.614 1.03.41 1.647 1.024 2.06 1.945.411.921.617 2.047.617 3.48v4.505c0 .716.103 1.535.412 2.251.309.717.412 1.331.412 1.536 0 .41-.206.716-.515 1.126-.31.41-.824.512-1.236.512-.412 0-.823-.205-1.235-.512-.515-.512-.927-1.126-1.339-1.843Zm-.31-5.527c-.617.204-1.441.41-2.47.614-1.133.205-1.854.41-2.266.512-.412.102-.823.307-1.235.614-.412.307-.618.716-.618 1.33 0 .615.206 1.127.72 1.536.412.41 1.03.614 1.751.614.72 0 1.441-.204 2.162-.512a3.628 3.628 0 0 0 1.442-1.33c.309-.512.514-1.536.514-2.866v-.512ZM48.915 9.433v11.26c0 1.33-.103 2.354-.412 3.276-.309.92-.72 1.74-1.338 2.252-.618.614-1.442 1.023-2.368 1.33-.927.307-2.162.41-3.707.41-1.338 0-2.574-.205-3.603-.512-1.03-.307-1.854-.819-2.471-1.433-.618-.614-.824-1.228-.824-1.843 0-.511.206-.818.515-1.126.309-.307.72-.41 1.132-.41.618 0 1.03.206 1.545.718.206.204.411.511.617.818.206.308.515.512.721.717.206.205.618.307 1.03.41.412.102.823.102 1.338.102 1.03 0 1.75-.103 2.368-.41.515-.307.927-.716 1.133-1.126.206-.511.309-1.023.412-1.637 0-.615.103-1.536.103-2.764-.618.819-1.339 1.433-2.06 1.945-.72.511-1.75.614-2.78.614-1.338 0-2.47-.307-3.397-1.024-.927-.614-1.75-1.638-2.265-2.764a10.38 10.38 0 0 1-.824-4.094c0-1.126.206-2.252.515-3.173a7.439 7.439 0 0 1 1.338-2.355c.618-.614 1.236-1.126 2.06-1.433a6.779 6.779 0 0 1 2.574-.512c1.132 0 2.059.205 2.882.615.824.41 1.545 1.126 2.265 1.944v-.511c0-.717.206-1.229.515-1.536.31-.41.721-.512 1.236-.512.72 0 1.235.205 1.544.717.103.512.206 1.228.206 2.047ZM37.693 14.45c0 1.535.308 2.764 1.03 3.583.72.819 1.544 1.228 2.676 1.228.618 0 1.236-.205 1.853-.512.618-.307 1.03-.819 1.442-1.535.412-.717.515-1.536.515-2.56 0-1.535-.31-2.763-1.03-3.684-.72-.922-1.647-1.331-2.78-1.331-1.133 0-2.06.41-2.677 1.228-.72.82-1.03 1.945-1.03 3.583ZM63.639 20.181v-.41c-.515.615-1.03 1.127-1.545 1.434-.515.41-1.03.614-1.647.819a6.027 6.027 0 0 1-1.957.307c-.926 0-1.75-.205-2.574-.614-.823-.41-1.441-.922-2.059-1.638-.617-.717-1.03-1.638-1.338-2.56-.31-1.023-.412-2.046-.412-3.172 0-2.457.618-4.3 1.75-5.63 1.236-1.331 2.78-2.048 4.736-2.048 1.133 0 2.06.205 2.883.615.824.409 1.545 1.023 2.265 1.74V3.29c0-.818.206-1.433.515-1.842.31-.41.824-.614 1.339-.614.618 0 1.03.204 1.338.512.31.409.515.92.515 1.637V20.08c0 .716-.206 1.33-.515 1.638-.309.41-.824.511-1.338.511-.515 0-.927-.204-1.339-.614-.412-.41-.617-.716-.617-1.433Zm-7.723-5.732c0 1.024.206 1.945.515 2.661.31.717.824 1.331 1.339 1.638.617.41 1.235.512 1.853.512.72 0 1.339-.205 1.853-.512.618-.307 1.03-.921 1.339-1.638.309-.716.515-1.637.515-2.763 0-1.024-.206-1.945-.515-2.662a4.643 4.643 0 0 0-1.339-1.74c-.617-.41-1.235-.614-1.853-.614-.72 0-1.338.205-1.956.614a4.643 4.643 0 0 0-1.339 1.74c-.206.921-.412 1.843-.412 2.764ZM85.775 14.551c0 1.126-.206 2.252-.515 3.174a8.937 8.937 0 0 1-1.544 2.559c-.618.716-1.545 1.228-2.471 1.637-.927.41-2.06.512-3.192.512-1.133 0-2.265-.204-3.192-.614-.927-.41-1.75-.921-2.471-1.638a6.219 6.219 0 0 1-1.544-2.456 10.252 10.252 0 0 1-.515-3.174c0-1.126.206-2.252.515-3.275.411-1.024.926-1.843 1.544-2.457.618-.614 1.544-1.228 2.471-1.638.927-.41 2.06-.512 3.192-.512 1.132 0 2.265.205 3.192.615.926.41 1.75.92 2.47 1.637a6.219 6.219 0 0 1 1.545 2.457c.412.921.515 1.945.515 3.173Zm-3.913 0c0-1.535-.308-2.764-1.03-3.685-.72-.921-1.647-1.33-2.78-1.33-.72 0-1.44.204-2.058.614-.618.41-1.03 1.023-1.339 1.74-.309.819-.515 1.638-.515 2.661 0 1.024.206 1.945.515 2.662.309.716.72 1.33 1.339 1.74.617.41 1.235.614 2.059.614 1.132 0 2.162-.41 2.78-1.33.72-.922 1.03-2.15 1.03-3.686ZM101.837 14.858v5.119c0 .818-.206 1.433-.515 1.842-.412.41-.824.614-1.442.614-.617 0-1.03-.204-1.441-.614-.412-.41-.515-1.024-.515-1.842v-6.142c0-1.024 0-1.74-.103-2.252-.103-.512-.206-1.024-.515-1.33-.308-.308-.72-.513-1.441-.513-1.236 0-2.162.41-2.574 1.331-.412.921-.618 2.15-.618 3.787v5.22c0 .82-.206 1.434-.515 1.843-.308.41-.823.615-1.441.615-.618 0-1.03-.205-1.442-.615-.411-.409-.514-1.023-.514-1.842V8.92c0-.716.206-1.33.514-1.637.31-.307.824-.615 1.339-.615s1.03.205 1.338.512c.31.307.515.82.515 1.433v.41c.721-.82 1.442-1.433 2.162-1.74a5.608 5.608 0 0 1 2.575-.615c1.03 0 1.853.205 2.574.615.72.41 1.235 1.023 1.75 1.74.618-.82 1.338-1.433 2.162-1.74.721-.41 1.544-.615 2.471-.615 1.03 0 1.956.205 2.78.615a4.742 4.742 0 0 1 1.75 1.74c.309.716.515 1.842.515 3.275v7.575c0 .82-.206 1.433-.515 1.843-.412.41-.823.614-1.441.614-.618 0-1.03-.205-1.442-.614-.411-.41-.514-1.024-.514-1.843v-6.449c0-.819 0-1.535-.103-2.047-.103-.512-.309-.921-.618-1.228-.309-.307-.824-.512-1.442-.512-.514 0-1.029.102-1.441.41-.412.306-.824.716-1.03 1.228-.617.716-.823 1.842-.823 3.582Z"/></svg>